<?xml version="1.0" standalone="no"?>
<!DOCTYPE svg PUBLIC "-//W3C//DTD SVG 20010904//EN"
 "http://www.w3.org/TR/2001/REC-SVG-20010904/DTD/svg10.dtd">
<svg version="1.0" xmlns="http://www.w3.org/2000/svg"
 width="1024.000000pt" height="1024.000000pt" viewBox="0 0 1024.000000 1024.000000"
 preserveAspectRatio="xMidYMid meet">
<metadata>
Created by potrace 1.11, written by Peter Selinger 2001-2013
</metadata>
<g transform="translate(0.000000,1024.000000) scale(0.100000,-0.100000)"
fill="#000000" stroke="none">
<path d="M5869 8407 c-60 -32 -75 -65 -164 -377 -42 -146 -101 -350 -131 -455
-31 -104 -57 -197 -59 -205 -4 -17 -131 -456 -232 -800 -36 -124 -67 -232 -68
-240 -2 -8 -76 -265 -165 -570 -89 -305 -166 -568 -170 -585 -27 -97 -70 -247
-155 -540 -140 -484 -335 -1157 -435 -1505 -49 -168 -126 -438 -173 -600 -47
-162 -116 -398 -152 -525 -37 -126 -89 -309 -117 -405 -28 -96 -53 -190 -55
-208 -6 -42 29 -115 69 -143 33 -24 359 -119 423 -124 48 -3 102 22 137 63 15
18 37 74 57 143 17 63 41 143 51 179 11 36 47 160 80 275 33 116 69 239 80
275 24 81 290 999 295 1020 2 8 28 101 58 205 31 105 80 276 111 380 52 180
87 302 297 1030 49 171 126 436 170 590 44 154 84 294 90 310 8 27 99 343 112
390 3 11 28 99 57 195 28 96 57 198 65 225 8 28 74 259 148 515 313 1080 348
1204 353 1237 7 59 -32 130 -89 160 -38 19 -383 113 -417 113 -15 0 -47 -10
-71 -23z"/>
<path d="M2835 7416 c-41 -19 -2561 -2543 -2575 -2579 -15 -43 -12 -94 9 -135
30 -56 2527 -2547 2573 -2567 93 -38 137 -14 324 176 83 85 158 168 166 184
16 33 16 95 0 135 -5 14 -487 503 -1070 1086 l-1060 1061 1049 1049 c578 577
1059 1064 1070 1082 27 43 31 100 9 149 -21 48 -312 340 -357 359 -41 18 -99
17 -138 0z"/>
<path d="M7265 7416 c-37 -17 -330 -307 -352 -350 -21 -40 -21 -112 0 -151 8
-16 490 -504 1071 -1084 l1054 -1054 -1054 -1055 c-581 -581 -1062 -1069
-1071 -1085 -21 -41 -23 -95 -6 -137 19 -47 306 -336 358 -361 51 -24 89 -24
140 0 28 13 429 408 1307 1287 1256 1258 1267 1269 1273 1316 15 98 95 11
-1263 1372 -692 692 -1275 1271 -1296 1287 -44 33 -108 39 -161 15z"/>
</g>
</svg>
