<?xml version="1.0" encoding="UTF-8" standalone="no"?>
<svg width="696px" height="274px" viewBox="0 0 696 274" version="1.1" xmlns="http://www.w3.org/2000/svg" xmlns:xlink="http://www.w3.org/1999/xlink">
    <!-- Generator: Sketch 39.1 (31720) - http://www.bohemiancoding.com/sketch -->
    <title>Slice 1</title>
    <desc>Created with Sketch.</desc>
    <defs></defs>
    <g id="Page-1" stroke="none" stroke-width="1" fill="none" fill-rule="evenodd">
        <g id="logo_camphill" fill="#FFFFFF">
            <g id="layer1">
                <path d="M283.909,112.1988 C310.77323,90.56863 339.18417,73.636839 347.11242,74.532069 C360.31516,76.022899 396.69882,102.03349 432.35153,135.4693 C448.43684,150.5544 451.87703,156.50613 450.65619,167.1373 C448.32289,187.456 406.86079,263.50671 394.68337,269.80391 C388.44352,273.03066 305.70153,275.16846 296.11149,272.3507 C285.27666,269.16722 278.34392,259.69068 257.37269,219.39778 M441.01937,89.70314 C378.31867,54.625266 352.94015,48.283624 320.11993,59.492474 C250.11327,83.40135 188.08572,123.26483 193.8131,140.66657 C196.07426,147.53675 206.9636,167.41122 218.80904,186.28747 C233.99176,210.4818 232.74626,216.57427 214.19057,208.879 C203.26886,204.34962 167.31642,190.95682 157.76689,187.86038 C148.61588,184.89313 144.12265,185.03864 131.48883,188.7114 C124.29947,190.8014 117.9827,191.36599 111.90063,190.4622 C101.12551,188.861 6.101371,157.65894 2.239621,154.45397 C-6.986745,146.79675 13.770557,131.83203 76.88049,100.64251 C100.75345,88.84427 121.67335,78.472969 123.36915,77.595199 C139.19589,69.402962 231.40225,33.949318 273.65152,19.811126 C328.25242,1.539637 343.2134,-1.495403 360.92683,2.106183 C375.41483,5.051942 430.53977,23.258303 452.09585,32.216961 C460.58401,35.744641 474.03968,41.251337 481.99733,44.454094 C489.95498,47.656851 508.18524,55.209773 522.50901,61.238374 C536.83278,67.266978 552.77981,73.883609 557.94682,75.942029 C579.12505,84.3789 694.0311,144.02387 694.34899,146.74509 C694.43016,147.44004 694.7772,149.45825 695.12017,151.23 C696.51208,158.4206 678.5926,167.57609 626.22615,186.42956 C590.43759,199.31452 577.7309,201.14005 563.85759,195.38988 C550.62555,189.90553 538.70703,192.01868 481.78551,209.94124 C466.43274,214.77528 462.27273,215.4163 460.13389,213.27745 C457.37764,210.52121 459.11939,204.00755 465.39691,193.59548 M257.37269,219.39778 C225.3919,157.95172 224.9705,159.65408 283.909,112.1988 M465.39691,193.59548 C503.86955,129.78377 502.54088,124.12129 441.01937,89.70314" id="path2247"></path>
            </g>
        </g>
    </g>
</svg>