<?xml version="1.0" encoding="UTF-8" standalone="no"?>
<svg width="975px" height="350px" viewBox="0 0 975 350" version="1.1" xmlns="http://www.w3.org/2000/svg" xmlns:xlink="http://www.w3.org/1999/xlink">
    <!-- Generator: Sketch 39.1 (31720) - http://www.bohemiancoding.com/sketch -->
    <title>Slice 1</title>
    <desc>Created with Sketch.</desc>
    <defs></defs>
    <g id="Page-1" stroke="none" stroke-width="1" fill="none" fill-rule="evenodd">
        <g id="logo_kit" fill="#FFFFFF">
            <path d="M974.5105,0.415961 L743.99628,0.415961 L743.99628,78.9274 L811.39409,78.9274 L811.39409,349.59355 L907.11302,349.59355 L907.11302,78.9274 L974.5105,78.9274 L974.5105,0.415961 L974.5105,0.415961 Z M721.05221,349.234901 L625.33302,349.234901 L625.33302,0.415961 L721.05221,0.415961 L721.05221,349.234901 L721.05221,349.234901 Z M609.20062,349.234901 L502.72677,349.234901 L376.17696,213.364281 L376.17696,135.570031 L498.78321,0.057291 L608.48387,0.057291 L467.23551,175.721941 L609.20062,349.234901 L609.20062,349.234901 Z" id="Shape"></path>
            <path d="M80.415838,128.04142 C62.132255,150.26854 46.358573,174.64647 34.169294,200.81675 L353.232904,349.2349 L80.415844,128.04142 L80.415838,128.04142 Z" id="Shape"></path>
            <path d="M353.2329,349.2349 L204.45625,32.681003 C177.92722,44.86959 153.5495,59.927083 131.32261,77.85195 L353.2329,349.2349 L353.2329,349.2349 Z" id="Shape"></path>
            <path d="M353.2329,349.2349 L353.59136,0.41596 L350.72363,0.41596 C322.40212,0.41596 294.79773,4.001349 268.26899,10.454177 L353.2329,349.234897 L353.2329,349.2349 Z" id="Shape"></path>
            <path d="M11.225547,263.91246 C4.055733,291.15854 0.4707,319.83813 0.112113,349.2349 L353.232903,349.2349 L11.225553,263.91246 L11.225547,263.91246 Z" id="Shape"></path>
        </g>
    </g>
</svg>