<?xml version="1.0" encoding="UTF-8" standalone="no"?>
<svg width="90px" height="45px" viewBox="0 0 90 45" version="1.1" xmlns="http://www.w3.org/2000/svg" xmlns:xlink="http://www.w3.org/1999/xlink">
    <!-- Generator: Sketch 39.1 (31720) - http://www.bohemiancoding.com/sketch -->
    <title>Slice 1</title>
    <desc>Created with Sketch.</desc>
    <defs></defs>
    <g id="Page-1" stroke="none" stroke-width="1" fill="none" fill-rule="evenodd">
        <g id="logo_sap" fill="#FFFFFF">
            <path d="M0,0 L0,44.415 L45.371,44.415 L89.781,0.005 L0,0.005 L0,0 Z M53.281,8.353 L44.444,8.353 L44.444,29.366 L36.724,8.353 L29.072,8.353 L22.476,25.921 C21.779,21.493 17.192,19.96 13.586,18.817 C11.209,18.052 8.679,16.928 8.702,15.683 C8.722,14.665 10.061,13.721 12.702,13.862 C14.482,13.952 16.052,14.096 19.169,15.603 L22.239,10.255 C19.395,8.802 15.454,7.89 12.23,7.883 L12.21,7.883 C8.449,7.883 5.315,9.109 3.371,11.116 C2.02,12.52 1.289,14.296 1.256,16.273 C1.206,18.981 2.203,20.903 4.29,22.44 C6.056,23.734 8.309,24.567 10.299,25.191 C12.754,25.948 14.758,26.609 14.735,28.018 C14.715,28.531 14.524,29.012 14.153,29.392 C13.542,30.027 12.603,30.262 11.304,30.291 C8.8,30.341 6.943,29.951 3.985,28.203 L1.256,33.626 C4.205,35.305 7.696,36.287 11.259,36.287 L11.72,36.287 C14.82,36.227 17.324,35.342 19.325,33.734 L19.649,33.451 L18.765,35.827 L26.79,35.827 L28.138,31.728 C29.548,32.205 31.154,32.473 32.854,32.473 C34.513,32.473 36.078,32.223 37.463,31.767 L38.759,35.827 L51.853,35.827 L51.853,27.337 L54.71,27.337 C61.61,27.337 65.696,23.825 65.696,17.931 C65.696,11.371 61.728,8.362 53.28,8.362 L53.281,8.353 Z M53.797,21.252 L51.851,21.252 L51.851,14.135 L53.797,14.135 C56.395,14.135 58.463,14.991 58.463,17.648 C58.463,20.392 56.395,21.252 53.797,21.252 M32.852,26.34 C31.822,26.34 30.856,26.152 30.021,25.838 L32.824,16.998 L32.884,16.998 L35.629,25.862 C34.802,26.158 33.861,26.34 32.855,26.34" id="Combined-Shape"></path>
        </g>
    </g>
</svg>